<?xml version="1.0" encoding="iso-8859-1"?>
<!-- Generator: Adobe Illustrator 19.0.0, SVG Export Plug-In . SVG Version: 6.00 Build 0)  -->
<svg version="1.1" id="Capa_1" xmlns="http://www.w3.org/2000/svg" xmlns:xlink="http://www.w3.org/1999/xlink" x="0px" y="0px"
	 viewBox="0 0 512 512" style="enable-background:new 0 0 512 512;" xml:space="preserve">
<path style="fill:#C8F5FF;" d="M71,144.012h-4c-22.091,0-40,17.909-40,40v262.421c0,0.872,0.707,1.579,1.579,1.579h454.842
	c0.872,0,1.579-0.707,1.579-1.579V184.012c0-22.091-17.909-40-40-40h-5.833H71z"/>
<path style="fill:#FFFFFF;" d="M74,448.012V42c0-17.673,14.327-32,32-32h300c17.673,0,32,14.327,32,32v406.012H74z"/>
<path style="fill:#FF5A5A;" d="M204,114.766v42.5C204,169.821,214.179,180,226.734,180h58.531C297.821,180,308,169.821,308,157.266
	v-42.5c0-12.556-10.179-22.734-22.734-22.734h-58.531C214.179,92.031,204,102.21,204,114.766z"/>
<g>
	<rect x="140" y="220" style="fill:#78D2FA;" width="232" height="72"/>
	<rect x="140" y="328" style="fill:#78D2FA;" width="232" height="72"/>
	<path style="fill:#78D2FA;" d="M10,448v14c0,22.091,17.909,40,40,40h412c22.091,0,40-17.909,40-40v-14H10z"/>
</g>
<path d="M184.48,60c2.64,0,5.21-1.07,7.07-2.93c1.87-1.86,2.93-4.44,2.93-7.07s-1.06-5.21-2.93-7.07c-1.86-1.86-4.43-2.93-7.07-2.93
	c-2.63,0-5.21,1.07-7.07,2.93s-2.93,4.44-2.93,7.07s1.07,5.21,2.93,7.07C179.27,58.93,181.85,60,184.48,60z"/>
<path d="M502,438h-7v-81c0-5.523-4.477-10-10-10s-10,4.477-10,10v81h-27V154.163c15.139,1.51,27,14.32,27,29.85v89.584
	c0,5.523,4.477,10,10,10s10-4.477,10-10v-89.584c0-26.562-20.822-48.344-47-49.902V42c0-23.159-18.841-42-42-42H106
	C82.841,0,64,18.841,64,42v92.11c-26.178,1.558-47,23.34-47,49.902V438h-7c-5.523,0-10,4.477-10,10v14c0,27.57,22.43,50,50,50h412
	c27.57,0,50-22.43,50-50v-14C512,442.477,507.523,438,502,438z M106,20h300c12.131,0,22,9.869,22,22v396H84V60h62.484
	c5.523,0,10-4.477,10-10s-4.477-10-10-10H84.095C85.109,28.803,94.544,20,106,20z M37,184.012c0-15.529,11.861-28.34,27-29.85V438
	H37V184.012z M492,462c0,16.542-13.458,30-30,30H50c-16.542,0-30-13.458-30-30v-4h472V462z"/>
<path d="M274,465h-36.083c-5.523,0-10,4.477-10,10s4.477,10,10,10H274c5.523,0,10-4.477,10-10S279.523,465,274,465z"/>
<path d="M485,305.85c-2.63,0-5.21,1.07-7.07,2.93c-1.86,1.86-2.93,4.44-2.93,7.07s1.07,5.21,2.93,7.07
	c1.86,1.86,4.44,2.93,7.07,2.93s5.21-1.07,7.07-2.93s2.93-4.44,2.93-7.07s-1.07-5.21-2.93-7.07S487.63,305.85,485,305.85z"/>
<path d="M194,114.766v42.5c0,18.05,14.685,32.734,32.734,32.734h58.531c18.05,0,32.734-14.685,32.734-32.734v-42.5
	c0-14.931-10.052-27.55-23.742-31.468V72.131c0-21.025-17.105-38.131-38.131-38.131s-38.131,17.105-38.131,38.131v11.094
	C204.177,87.059,194,99.742,194,114.766z M237.996,72.131c0-9.998,8.133-18.131,18.131-18.131s18.131,8.133,18.131,18.131v9.9
	h-36.262L237.996,72.131L237.996,72.131z M214,114.766c0-7.022,5.712-12.734,12.734-12.734h1.262h56.262h1.008
	c7.022,0,12.734,5.712,12.734,12.734v42.5c0,7.022-5.712,12.734-12.734,12.734h-58.531c-7.022,0-12.734-5.712-12.734-12.734
	L214,114.766L214,114.766z"/>
<path d="M256.127,150c5.523,0,10-4.477,10-10v-15.5c0-5.523-4.477-10-10-10s-10,4.477-10,10V140
	C246.127,145.523,250.604,150,256.127,150z"/>
<path d="M130,220v72c0,5.523,4.477,10,10,10h232c5.523,0,10-4.477,10-10v-72c0-5.523-4.477-10-10-10H140
	C134.477,210,130,214.477,130,220z M150,230h212v52H150V230z"/>
<path d="M188,246c-2.63,0-5.21,1.07-7.07,2.93c-1.86,1.86-2.93,4.44-2.93,7.07s1.07,5.21,2.93,7.07c1.86,1.86,4.44,2.93,7.07,2.93
	s5.21-1.07,7.07-2.93S198,258.63,198,256s-1.07-5.21-2.93-7.07C193.21,247.07,190.63,246,188,246z"/>
<path d="M233.33,246c-2.63,0-5.21,1.07-7.07,2.93c-1.86,1.86-2.93,4.44-2.93,7.07s1.07,5.21,2.93,7.07s4.44,2.93,7.07,2.93
	c2.64,0,5.21-1.07,7.07-2.93c1.87-1.86,2.93-4.44,2.93-7.07s-1.06-5.21-2.93-7.07C238.54,247.07,235.96,246,233.33,246z"/>
<path d="M278.67,246c-2.63,0-5.21,1.07-7.08,2.93c-1.86,1.86-2.92,4.44-2.92,7.07s1.06,5.21,2.92,7.07
	c1.87,1.86,4.44,2.93,7.08,2.93c2.63,0,5.21-1.07,7.07-2.93s2.93-4.44,2.93-7.07s-1.07-5.21-2.93-7.07
	C283.87,247.07,281.3,246,278.67,246z"/>
<path d="M324,246c-2.63,0-5.21,1.07-7.07,2.93c-1.86,1.86-2.93,4.44-2.93,7.07s1.07,5.21,2.93,7.07c1.86,1.86,4.44,2.93,7.07,2.93
	s5.21-1.07,7.07-2.93S334,258.63,334,256s-1.07-5.21-2.93-7.07C329.21,247.07,326.63,246,324,246z"/>
<path d="M372,318H140c-5.523,0-10,4.477-10,10v72c0,5.523,4.477,10,10,10h232c5.523,0,10-4.477,10-10v-72
	C382,322.477,377.523,318,372,318z M362,390H150v-52h212V390z"/>
<path d="M188,374c2.63,0,5.21-1.07,7.07-2.93S198,366.63,198,364s-1.07-5.21-2.93-7.07c-1.86-1.86-4.44-2.93-7.07-2.93
	s-5.21,1.07-7.07,2.93S178,361.37,178,364s1.07,5.21,2.93,7.07C182.79,372.93,185.37,374,188,374z"/>
<path d="M233.33,374c2.64,0,5.21-1.07,7.07-2.93c1.87-1.86,2.93-4.44,2.93-7.07s-1.06-5.21-2.93-7.07
	c-1.86-1.86-4.43-2.93-7.07-2.93c-2.63,0-5.21,1.07-7.07,2.93s-2.93,4.44-2.93,7.07s1.07,5.21,2.93,7.07S230.7,374,233.33,374z"/>
<path d="M278.67,374c2.63,0,5.21-1.07,7.07-2.93s2.93-4.44,2.93-7.07s-1.07-5.21-2.93-7.07c-1.86-1.86-4.44-2.93-7.07-2.93
	c-2.64,0-5.21,1.07-7.07,2.93c-1.87,1.86-2.93,4.44-2.93,7.07s1.06,5.21,2.93,7.07C273.46,372.93,276.03,374,278.67,374z"/>
<path d="M324,374c2.63,0,5.21-1.07,7.07-2.93S334,366.63,334,364s-1.07-5.21-2.93-7.07c-1.86-1.86-4.44-2.93-7.07-2.93
	s-5.21,1.07-7.07,2.93c-1.86,1.86-2.93,4.44-2.93,7.07s1.07,5.21,2.93,7.07C318.79,372.93,321.37,374,324,374z"/>
<g>
</g>
<g>
</g>
<g>
</g>
<g>
</g>
<g>
</g>
<g>
</g>
<g>
</g>
<g>
</g>
<g>
</g>
<g>
</g>
<g>
</g>
<g>
</g>
<g>
</g>
<g>
</g>
<g>
</g>
</svg>
